<?xml version="1.0" standalone="no"?>
<!DOCTYPE svg PUBLIC "-//W3C//DTD SVG 20010904//EN"
 "http://www.w3.org/TR/2001/REC-SVG-20010904/DTD/svg10.dtd">
<svg version="1.0" xmlns="http://www.w3.org/2000/svg"
 width="300.000000pt" height="276.000000pt" viewBox="0 0 300.000000 276.000000"
 preserveAspectRatio="xMidYMid meet">
<metadata>
Created by potrace 1.10, written by Peter Selinger 2001-2011
</metadata>
<g transform="translate(0.000000,276.000000) scale(0.100000,-0.100000)"
fill="#000000" stroke="none">
<path d="M1378 2659 c-170 -14 -362 -82 -518 -184 -96 -62 -272 -238 -338
-337 -99 -148 -197 -378 -217 -509 -6 -38 -12 -48 -41 -64 -51 -27 -122 -108
-152 -173 -22 -48 -27 -71 -26 -142 0 -113 32 -188 115 -264 53 -49 142 -96
183 -96 7 0 26 -18 42 -41 55 -80 172 -177 268 -224 153 -75 299 -83 462 -26
74 26 76 26 64 -5 -6 -14 -10 -92 -10 -173 0 -138 -1 -149 -21 -167 -20 -18
-42 -19 -330 -21 -174 -2 -319 1 -333 7 -14 5 -30 19 -37 31 -9 19 -9 25 5 35
15 10 14 12 -6 17 l-23 6 3 198 c3 201 -1 263 -18 263 -6 0 -10 -100 -10 -255
0 -271 4 -301 49 -325 29 -15 676 -14 704 2 44 23 46 34 47 230 l0 187 54 30
c29 17 64 31 77 31 53 0 89 56 57 88 -29 29 -118 0 -118 -38 0 -15 -153 -87
-225 -105 -84 -21 -209 -19 -286 5 -117 36 -224 114 -320 233 l-39 49 0 349 0
349 44 113 c78 199 157 320 305 468 211 210 425 302 701 302 80 0 151 -6 197
-16 352 -80 649 -357 810 -754 l35 -87 -1 -323 c-1 -200 2 -323 8 -323 6 0 10
120 10 313 l0 312 -29 80 c-108 295 -163 387 -317 536 -221 212 -465 308 -753
296 -198 -8 -338 -53 -505 -160 -80 -52 -225 -181 -275 -246 -56 -71 -120
-173 -120 -189 0 -9 -13 -36 -30 -62 -25 -40 -62 -127 -75 -180 -2 -8 -9 -30
-14 -49 -7 -22 -10 -158 -8 -363 2 -261 -1 -328 -11 -328 -27 0 -116 53 -156
94 -65 64 -99 142 -103 235 -5 106 17 165 77 208 94 68 99 73 105 111 22 134
123 372 218 512 61 89 230 261 307 312 128 84 286 154 390 172 213 39 394 29
570 -30 377 -128 677 -468 785 -889 28 -109 39 -124 129 -177 32 -19 52 -40
62 -63 55 -133 29 -271 -72 -384 -46 -51 -130 -101 -171 -101 -19 0 -23 -5
-23 -34 0 -21 -6 -36 -15 -40 -13 -5 -15 -48 -15 -305 0 -279 -1 -300 -19
-322 l-19 -24 -314 -3 c-198 -2 -325 1 -342 7 -35 14 -50 51 -28 69 15 12 15
13 -3 18 -19 5 -20 13 -17 232 2 161 0 233 -9 248 -20 39 -58 47 -171 38 -57
-5 -112 -8 -123 -8 -200 13 -186 14 -217 -17 -30 -30 -33 -64 -9 -106 9 -15
10 -10 11 25 0 85 -9 82 243 82 160 0 226 -3 235 -12 9 -9 12 -85 12 -281 l0
-269 29 -29 29 -29 342 0 342 0 29 29 29 29 0 315 0 314 56 6 c119 12 240 107
285 225 30 78 30 186 0 264 -27 70 -105 158 -164 187 -42 20 -43 23 -61 98
-83 361 -311 677 -612 848 -201 115 -422 163 -656 144z m1441 -1555 c-45 -90
-125 -154 -212 -168 -51 -8 -46 6 12 33 106 50 188 157 212 279 l14 67 3 -73
c3 -65 -1 -80 -29 -138z m-2638 30 c30 -59 98 -125 163 -158 71 -36 82 -51 30
-42 -125 24 -241 150 -245 269 -3 75 2 83 17 27 8 -30 24 -73 35 -96z"/>
<path d="M602 1928 c4 -10 75 -14 292 -18 270 -5 289 -6 302 -24 10 -15 14
-53 14 -145 1 -69 2 -188 3 -264 2 -138 2 -139 30 -163 28 -24 30 -24 248 -24
l220 0 24 26 c15 16 25 39 25 58 1 29 1 30 15 12 23 -30 26 -15 15 60 -5 38
-10 142 -10 232 0 181 6 203 63 221 18 5 139 10 270 11 131 0 244 3 252 7 48
18 -14 23 -270 23 -304 0 -330 -4 -355 -49 -6 -12 -10 -122 -10 -283 0 -192
-3 -267 -12 -276 -17 -17 -449 -17 -466 0 -9 9 -12 86 -12 284 l0 272 -31 26
-31 26 -290 0 c-227 0 -289 -3 -286 -12z"/>
<path d="M1918 1880 c-21 -4 -47 -15 -59 -26 -19 -17 -20 -26 -14 -99 6 -73
-6 -281 -21 -365 -4 -26 -3 -31 5 -20 20 29 31 117 33 280 1 91 5 172 9 181 5
9 27 24 49 33 22 9 40 18 40 21 0 3 -1 4 -2 4 -2 -1 -20 -5 -40 -9z"/>
<path d="M554 1779 c20 -204 17 -423 -10 -594 -10 -64 12 -29 24 40 28 150 22
546 -9 594 -8 12 -9 1 -5 -40z"/>
<path d="M474 1623 c-15 -139 10 -460 38 -488 7 -7 8 -3 5 10 -18 61 -30 211
-30 368 -1 97 -2 177 -3 177 -1 0 -6 -30 -10 -67z"/>
<path d="M1256 1178 c-19 -27 -22 -82 -3 -76 6 3 14 13 16 24 5 29 21 44 48
44 18 0 28 -9 39 -36 16 -39 41 -41 36 -3 -7 63 -102 96 -136 47z"/>
<path d="M1572 1177 c-24 -26 -33 -68 -15 -74 7 -2 19 12 27 31 11 27 21 36
38 36 30 0 48 -18 48 -47 0 -14 6 -23 15 -23 20 0 20 49 -1 78 -21 31 -83 31
-112 -1z"/>
<path d="M541 1045 c6 -22 9 -64 5 -95 -4 -40 -3 -50 5 -38 17 30 15 136 -4
155 -15 16 -16 14 -6 -22z"/>
<path d="M500 1051 c-15 -29 -12 -114 4 -137 13 -17 14 -14 5 25 -6 28 -6 61
-1 88 10 47 8 53 -8 24z"/>
<path d="M1314 1009 c-12 -13 -15 -23 -7 -27 5 -4 17 -21 26 -38 66 -129 216
-119 286 18 17 35 17 38 1 53 -13 12 -44 15 -152 15 -124 0 -136 -2 -154 -21z
m304 -19 c-3 -12 -28 -16 -142 -18 -134 -2 -155 1 -156 28 0 3 68 5 150 5 128
0 150 -2 148 -15z m-89 -76 c-45 -44 -139 -43 -139 2 0 9 20 14 68 17 37 2 74
4 82 5 9 1 5 -8 -11 -24z"/>
<path d="M1117 495 c-32 -36 -79 -77 -103 -91 -56 -33 -58 -43 -3 -12 44 24
141 115 159 148 6 11 9 20 8 20 -2 -1 -29 -30 -61 -65z"/>
<path d="M2297 458 c-32 -33 -50 -55 -40 -49 28 14 121 117 101 110 -2 0 -29
-28 -61 -61z"/>
<path d="M618 313 c34 -2 88 -2 120 0 31 2 3 3 -63 3 -66 0 -92 -1 -57 -3z"/>
</g>
</svg>
